<mxfile host="app.diagrams.net" modified="2024-01-18T15:51:49.668Z" agent="Mozilla/5.0 (Macintosh; Intel Mac OS X 10_15_7) AppleWebKit/537.36 (KHTML, like Gecko) Chrome/120.0.0.0 Safari/537.36" version="22.1.18" etag="j5xNkFIQe__OBcqmU7ls" type="github">
  <diagram name="第 1 页" id="H91dwD3ZRkst2pw-fFcp">
    <mxGraphModel>
      <root>
        <mxCell id="0" />
        <mxCell id="1" parent="0" />
      </root>
    </mxGraphModel>
  </diagram>
</mxfile>
